<?xml version="1.0" standalone="no"?>
<!DOCTYPE svg PUBLIC "-//W3C//DTD SVG 20010904//EN"
 "http://www.w3.org/TR/2001/REC-SVG-20010904/DTD/svg10.dtd">
<svg version="1.0" xmlns="http://www.w3.org/2000/svg"
 width="500.000000pt" height="500.000000pt" viewBox="0 0 500.000000 500.000000"
 preserveAspectRatio="xMidYMid meet">
<metadata>
Created by potrace 1.14, written by Peter Selinger 2001-2017
</metadata>
<g transform="translate(0.000000,500.000000) scale(0.100000,-0.100000)"
fill="#000000" stroke="none">
<path d="M2422 4363 c-6 -16 -17 -50 -23 -78 -7 -27 -18 -62 -25 -76 -13 -25
-15 -26 -103 -24 -50 1 -96 -2 -101 -5 -12 -7 21 -34 107 -89 l51 -33 -29 -86
c-16 -47 -29 -89 -29 -94 0 -16 16 -7 89 48 l74 55 83 -57 c46 -32 86 -56 88
-53 2 2 -10 46 -26 98 -24 75 -27 95 -16 102 47 28 148 101 148 107 0 5 -45 7
-100 7 -113 -2 -96 -17 -146 128 -15 42 -28 77 -29 77 -1 0 -7 -12 -13 -27z"/>
<path d="M1945 4006 c-13 -19 -14 -29 -5 -45 11 -21 21 -25 50 -21 34 5 41 63
11 80 -29 15 -39 13 -56 -14z"/>
<path d="M2848 4019 c-27 -15 -24 -68 4 -78 34 -12 56 -2 63 30 10 46 -26 72
-67 48z"/>
<path d="M1554 3862 c-37 -19 -44 -30 -44 -68 0 -75 79 -110 136 -61 22 19 27
32 26 62 -2 44 -15 62 -58 74 -22 6 -39 4 -60 -7z"/>
<path d="M3225 3854 c-27 -20 -28 -93 -1 -123 39 -43 130 -12 141 48 5 28 -18
76 -40 85 -29 11 -79 6 -100 -10z"/>
<path d="M2358 3765 c-2 -2 -31 -7 -63 -10 -106 -10 -230 -48 -360 -111 -106
-51 -111 -54 -195 -119 -101 -78 -156 -132 -218 -214 -31 -42 -60 -78 -63 -81
-3 -3 -23 -36 -45 -75 -222 -398 -200 -899 56 -1275 176 -258 470 -450 774
-505 72 -13 317 -13 386 0 229 45 466 171 631 336 186 186 292 380 345 634 18
88 25 294 12 365 -5 25 -10 54 -12 65 -54 290 -237 578 -486 761 -131 97 -349
189 -505 214 -71 12 -250 22 -257 15z m102 -324 c0 9 3 10 8 4 4 -5 16 -12 27
-13 31 -5 37 -16 20 -38 -14 -19 -15 -19 -21 3 -5 18 -10 21 -24 13 -19 -10
-40 4 -40 28 0 12 3 12 15 2 12 -10 15 -10 15 1z m-45 -11 c-3 -6 -11 -7 -17
-4 -7 4 -8 2 -4 -4 4 -6 13 -9 21 -5 8 3 15 1 15 -5 0 -6 -8 -9 -17 -7 -10 1
-26 -2 -35 -6 -13 -7 -20 -4 -28 10 -11 22 -6 26 42 29 18 2 27 -2 23 -8z
m675 -104 c0 -3 -4 -8 -10 -11 -5 -3 -10 -1 -10 4 0 6 5 11 10 11 6 0 10 -2
10 -4z m-550 -91 c-7 -8 -9 -15 -6 -15 4 0 0 -8 -10 -17 -10 -11 -38 -18 -75
-21 -51 -4 -60 -2 -83 21 -13 14 -26 24 -28 22 -2 -1 -11 6 -21 16 -18 17 -18
17 15 12 18 -3 36 -10 40 -16 4 -7 8 -7 8 -2 0 9 47 16 123 19 15 1 27 5 27
11 0 5 5 4 12 -3 8 -8 8 -15 -2 -27z m550 -55 c-8 -5 -17 -6 -20 -3 -3 3 1 8
8 10 6 3 9 10 6 16 -4 7 -1 7 7 -1 12 -11 12 -14 -1 -22z m-987 -191 c0 -93
-61 -175 -133 -179 -83 -5 -100 0 -138 36 -20 20 -31 33 -24 29 6 -3 12 0 12
7 0 9 3 9 10 -2 5 -8 10 -11 10 -7 0 4 9 3 20 -3 11 -6 26 -8 33 -3 6 4 26 8
45 9 37 2 78 40 88 82 4 15 13 36 20 47 7 11 14 36 15 55 2 19 5 39 8 45 10
19 34 -62 34 -116z m1125 -319 c30 -9 42 -19 42 -32 0 -23 -35 -62 -48 -54 -6
3 -12 1 -14 -4 -2 -7 -49 -13 -113 -15 -61 -2 -121 -7 -135 -10 -14 -3 -47 -8
-73 -11 -51 -6 -131 -37 -159 -62 -10 -8 -18 -12 -18 -7 0 4 -10 -5 -22 -21
-25 -33 -32 -39 -112 -98 -52 -39 -253 -149 -266 -146 -3 1 -18 -4 -35 -10
-43 -16 -99 -23 -190 -23 -120 1 -155 8 -236 53 -41 23 -93 50 -117 60 -23 11
-45 26 -48 35 -9 22 3 48 18 38 7 -4 18 -9 23 -10 6 -1 43 -14 83 -28 89 -31
134 -39 237 -38 132 1 248 40 431 144 45 25 88 49 95 52 8 4 46 27 84 52 160
104 300 152 440 150 50 -1 109 -7 133 -15z"/>
<path d="M1389 3651 c-29 -23 -20 -67 15 -73 40 -8 75 33 52 63 -19 25 -44 29
-67 10z"/>
<path d="M3425 3650 c-21 -23 -17 -48 11 -66 18 -13 23 -12 42 5 25 21 28 44
10 58 -27 20 -46 21 -63 3z"/>
<path d="M1236 3474 c-21 -21 -20 -51 2 -63 9 -5 20 -11 23 -13 10 -5 49 33
49 48 0 17 -28 44 -45 44 -7 0 -21 -7 -29 -16z"/>
<path d="M3589 3483 c-33 -8 -31 -56 2 -73 27 -15 59 4 59 35 0 20 -28 49 -42
44 -2 -1 -10 -3 -19 -6z"/>
<path d="M1020 3188 c-67 -72 3 -177 95 -142 46 18 55 119 12 149 -32 22 -83
19 -107 -7z"/>
<path d="M3740 3188 c-11 -12 -20 -27 -21 -32 0 -6 -2 -21 -3 -33 -4 -33 34
-73 74 -79 75 -12 119 77 69 140 -27 34 -88 37 -119 4z"/>
<path d="M941 2752 c-16 -66 -75 -133 -130 -152 -23 -7 -41 -16 -41 -21 0 -4
17 -14 38 -22 60 -25 109 -81 130 -148 l18 -59 19 56 c22 64 72 124 129 153
l39 20 -29 13 c-16 6 -42 21 -57 31 -29 20 -77 87 -77 109 -1 7 -6 26 -13 42
l-13 29 -13 -51z"/>
<path d="M3940 2776 c0 -23 -33 -90 -61 -123 -27 -33 -77 -63 -104 -63 -27 0
-16 -18 23 -33 52 -21 99 -74 127 -143 19 -47 25 -55 31 -39 35 102 77 154
148 186 l40 18 -45 19 c-56 24 -113 88 -129 147 -12 43 -30 61 -30 31z"/>
<path d="M1016 2131 c-35 -39 9 -95 54 -71 26 14 32 40 15 66 -19 29 -46 31
-69 5z"/>
<path d="M3794 2125 c-15 -23 -15 -27 0 -50 13 -20 22 -24 39 -19 43 12 52 45
24 82 -15 20 -45 14 -63 -13z"/>
<path d="M3760 1878 c0 -7 -23 -42 -50 -78 l-50 -65 28 -25 c16 -14 78 -69
139 -122 l111 -96 45 57 c25 32 55 76 68 99 l23 40 -24 21 c-32 26 -33 26 -52
-6 -9 -16 -29 -43 -45 -61 l-28 -33 -27 28 -28 29 35 48 34 49 -25 19 c-14 11
-26 19 -28 17 -2 -2 -17 -23 -34 -47 l-30 -43 -28 24 -27 24 31 45 32 46 -23
14 c-43 28 -47 29 -47 16z"/>
<path d="M996 1828 c-87 -18 -148 -95 -147 -183 0 -61 16 -97 58 -137 36 -35
75 -49 118 -43 35 4 109 38 119 54 6 9 -90 131 -103 131 -4 0 -16 -9 -26 -20
-18 -20 -18 -21 4 -50 l22 -30 -31 0 c-73 0 -108 100 -57 164 19 23 33 30 75
34 54 5 58 2 124 -78 10 -12 25 -16 46 -12 29 4 30 5 20 36 -34 100 -124 155
-222 134z"/>
<path d="M3572 1619 c-31 -12 -109 -76 -116 -95 -3 -9 20 -47 60 -97 35 -45
86 -110 111 -144 46 -60 47 -61 69 -45 36 27 37 43 3 84 -23 30 -28 42 -20 52
10 12 19 12 58 0 65 -20 74 -18 112 17 40 36 34 44 -41 54 -53 8 -62 15 -65
62 -5 83 -96 142 -171 112z m70 -86 c22 -19 23 -61 3 -87 -15 -19 -15 -19 -41
5 -44 41 -50 60 -24 81 27 22 38 23 62 1z"/>
<path d="M1274 1563 c-16 -20 -39 -48 -52 -62 -13 -14 -35 -40 -50 -60 -15
-19 -39 -46 -54 -61 -16 -15 -28 -32 -28 -39 0 -17 153 -162 169 -161 3 1 17
10 30 21 l25 20 -63 61 -62 62 25 24 24 25 32 -26 c37 -32 51 -33 73 -9 16 17
15 20 -18 52 -40 39 -42 50 -16 74 17 16 20 15 57 -18 46 -41 54 -43 80 -15
19 21 18 21 -51 84 -39 36 -75 64 -81 65 -6 0 -24 -17 -40 -37z"/>
<path d="M3261 1378 c4 -29 10 -71 13 -93 3 -22 8 -56 11 -75 7 -50 13 -97 21
-160 3 -30 9 -58 13 -62 3 -4 20 1 38 11 29 18 30 21 23 62 -10 54 -3 68 53
98 l44 24 44 -26 44 -25 33 22 32 23 -22 17 c-71 52 -257 178 -324 218 l-31
18 8 -52z m129 -128 c23 -19 23 -21 8 -31 -27 -15 -33 -12 -39 21 -8 35 -3 37
31 10z"/>
<path d="M1534 1353 c-15 -26 -58 -95 -96 -153 l-69 -105 28 -22 c32 -26 39
-22 90 54 19 29 39 53 43 53 5 0 17 -26 27 -59 l18 -59 55 19 c30 10 56 16 58
14 2 -2 -6 -30 -18 -62 -35 -92 -35 -97 6 -112 19 -7 37 -11 38 -9 2 1 16 36
33 76 l30 73 26 -60 c15 -34 31 -61 36 -61 5 0 29 11 52 25 64 36 70 33 53
-22 -8 -27 -17 -63 -20 -81 -5 -30 -3 -33 25 -38 33 -7 45 -4 47 11 1 6 22 86
47 180 25 93 45 170 44 172 -3 2 -87 -52 -162 -105 -26 -18 -48 -32 -50 -30
-8 11 -45 150 -47 181 -1 20 -3 37 -5 37 -1 0 -42 -23 -90 -50 -48 -28 -92
-49 -98 -47 -5 2 -22 52 -37 111 -14 59 -28 110 -31 112 -2 3 -17 -17 -33 -43z"/>
<path d="M3086 1282 c-4 -7 -9 -20 -11 -29 -2 -10 -15 -49 -30 -88 -14 -38
-26 -71 -25 -73 0 -1 -3 -9 -7 -17 -7 -12 -21 -6 -76 30 -36 25 -70 45 -75 45
-5 0 -21 11 -36 25 l-28 26 7 -33 c10 -53 86 -323 94 -336 5 -8 17 -9 43 -2
l36 10 -13 48 c-7 26 -18 62 -24 80 -5 17 -7 32 -3 32 4 0 29 -12 56 -26 26
-14 51 -22 55 -17 4 4 16 28 26 53 10 25 22 49 26 53 4 5 21 -20 39 -55 43
-85 50 -92 83 -77 27 12 34 27 19 44 -5 6 -16 30 -25 55 -34 90 -124 263 -131
252z"/>
<path d="M2270 1162 c0 -8 -8 -26 -19 -40 -10 -15 -31 -52 -47 -82 -15 -30
-39 -73 -53 -95 -14 -22 -38 -65 -53 -95 -25 -50 -26 -55 -10 -62 42 -16 59
-9 83 38 22 41 27 45 53 40 16 -3 41 -6 56 -6 27 0 35 -10 59 -75 10 -26 18
-31 46 -33 19 -2 35 0 35 4 0 10 -31 114 -41 139 -24 61 -79 220 -79 230 0 17
-29 53 -30 37z m-3 -230 c-30 -5 -39 11 -20 37 l16 24 12 -29 c10 -26 10 -29
-8 -32z"/>
<path d="M2612 1022 c-32 -3 -33 -4 -28 -45 2 -23 5 -56 5 -72 1 -29 2 -30 41
-27 27 3 40 9 40 19 0 10 -7 14 -19 10 -10 -2 -24 -1 -31 3 -15 9 -4 30 16 30
8 0 14 5 14 10 0 6 -9 10 -21 10 -14 0 -19 5 -17 18 2 9 11 16 20 16 17 -2 33
23 20 28 -4 2 -22 2 -40 0z"/>
<path d="M2675 1003 c3 -16 7 -45 9 -66 4 -48 8 -51 50 -43 24 5 33 11 30 20
-3 8 -14 12 -25 9 -21 -6 -25 3 -33 62 -3 22 -5 41 -6 43 0 1 -7 2 -15 2 -10
0 -13 -8 -10 -27z"/>
<path d="M2463 943 c4 -68 4 -68 35 -71 41 -4 72 27 72 71 0 44 -26 67 -74 67
l-37 0 4 -67z m72 21 c15 -21 7 -64 -11 -64 -27 0 -29 3 -32 41 -3 31 0 39 14
39 9 0 22 -7 29 -16z"/>
</g>
</svg>
