<?xml version="1.0" encoding="utf-8"?>
<!-- Generator: Adobe Illustrator 14.0.0, SVG Export Plug-In  -->
<!DOCTYPE svg PUBLIC "-//W3C//DTD SVG 1.1//EN" "http://www.w3.org/Graphics/SVG/1.1/DTD/svg11.dtd" [
	<!ENTITY ns_flows "http://ns.adobe.com/Flows/1.0/">
]>
<svg version="1.1"
	 xmlns="http://www.w3.org/2000/svg" xmlns:xlink="http://www.w3.org/1999/xlink" xmlns:a="http://ns.adobe.com/AdobeSVGViewerExtensions/3.0/"
	 x="0px" y="0px" width="253px" height="107px" viewBox="-4.614 -2.484 253 107" enable-background="new -4.614 -2.484 253 107"
	 xml:space="preserve">
<defs>
</defs>
<path fill="#FFFFFF" d="M20.133,54.576l-1.527,6.454h-0.574c0.091-0.756,0.136-1.314,0.136-1.678c0-0.987-0.436-1.861-1.307-2.622
	c-0.872-0.761-2.074-1.142-3.605-1.142c-3.134,0-5.694,1.472-7.679,4.414c-1.582,2.328-2.373,4.933-2.373,7.814
	c0,1.914,0.489,3.566,1.467,4.957c0.977,1.391,2.483,2.086,4.519,2.086c0.504,0,0.98-0.045,1.428-0.137
	c0.448-0.09,1.126-0.291,2.033-0.604l1.496-5.274c0.212-0.726,0.318-1.305,0.318-1.738c0-0.363-0.131-0.639-0.393-0.831
	c-0.423-0.292-1.109-0.438-2.056-0.438h-0.423l0.166-0.59h8.525l-0.151,0.59c-0.776,0.01-1.34,0.101-1.693,0.272
	c-0.353,0.171-0.655,0.464-0.907,0.876c-0.171,0.273-0.448,1.064-0.831,2.373l-1.512,5.186c-1.38,0.594-2.494,0.989-3.34,1.186
	c-0.846,0.197-1.738,0.295-2.675,0.295c-2.157,0-3.905-0.406-5.245-1.217c-1.34-0.812-2.33-1.885-2.97-3.219
	C0.32,70.252,0,68.924,0,67.605c0-1.772,0.373-3.459,1.118-5.056c0.746-1.598,1.676-2.947,2.789-4.051
	c1.113-1.104,2.325-1.973,3.635-2.607c1.804-0.877,3.698-1.315,5.683-1.315c1.461,0,2.782,0.242,3.96,0.726
	c0.474,0.191,0.822,0.287,1.043,0.287c0.252,0,0.467-0.058,0.643-0.174c0.176-0.115,0.405-0.395,0.687-0.839H20.133z"/>
<path fill="#FFFFFF" d="M30.229,56.148l-2.343,8.103h1.92c1.37,0,2.363-0.209,2.978-0.629c0.614-0.418,1.143-1.19,1.587-2.319h0.559
	l-2.101,7.437h-0.605c0.182-0.625,0.272-1.158,0.272-1.603c0-0.433-0.088-0.78-0.264-1.043c-0.177-0.261-0.419-0.455-0.726-0.582
	c-0.307-0.125-0.955-0.188-1.942-0.188h-1.95l-1.98,6.787c-0.191,0.654-0.287,1.153-0.287,1.496c0,0.262,0.126,0.493,0.378,0.695
	c0.171,0.141,0.599,0.211,1.285,0.211h1.813c1.965,0,3.54-0.348,4.724-1.043c1.183-0.695,2.244-1.904,3.182-3.627h0.559
	l-1.935,5.697h-15.84l0.196-0.559c0.786-0.02,1.315-0.091,1.587-0.212c0.403-0.181,0.696-0.413,0.877-0.694
	c0.272-0.414,0.595-1.28,0.967-2.601l3.598-12.364c0.282-0.996,0.423-1.758,0.423-2.281c0-0.383-0.134-0.683-0.401-0.899
	s-0.788-0.325-1.564-0.325h-0.318l0.182-0.56h14.722l-1.27,4.942h-0.559c0.07-0.464,0.106-0.851,0.106-1.164
	c0-0.533-0.132-0.981-0.393-1.345c-0.343-0.463-0.842-0.815-1.497-1.058c-0.483-0.182-1.597-0.272-3.34-0.272H30.229z"/>
<path fill="#FFFFFF" d="M48.926,55.044l1.889,16.505l11.896-16.505h5.003v0.56c-1.089,0.07-1.729,0.142-1.92,0.212
	c-0.332,0.131-0.638,0.393-0.914,0.786c-0.278,0.393-0.578,1.148-0.9,2.267l-3.794,12.999c-0.221,0.756-0.332,1.35-0.332,1.783
	c0,0.393,0.136,0.689,0.408,0.892c0.383,0.293,0.987,0.438,1.814,0.438h0.363l-0.137,0.56h-8.63l0.151-0.56h0.408
	c0.766,0,1.35-0.11,1.754-0.332c0.312-0.161,0.591-0.467,0.838-0.915c0.247-0.448,0.592-1.443,1.036-2.985l3.385-11.88L49.29,75.541
	h-0.605l-1.92-16.672l-3.657,12.681c-0.313,1.078-0.469,1.805-0.469,2.178s0.136,0.656,0.408,0.854c0.272,0.196,0.932,0.33,1.98,0.4
	l-0.166,0.56h-6.756l0.166-0.56h0.408c0.998,0,1.718-0.252,2.162-0.756c0.322-0.362,0.659-1.148,1.012-2.357l4.459-15.281
	c-0.332-0.343-0.65-0.574-0.952-0.695c-0.303-0.121-0.862-0.217-1.678-0.287l0.151-0.56H48.926z"/>
<path fill="#FFFFFF" d="M74.712,55.044l1.889,16.505l11.896-16.505H93.5v0.56c-1.089,0.07-1.729,0.142-1.92,0.212
	c-0.332,0.131-0.638,0.393-0.914,0.786c-0.278,0.393-0.578,1.148-0.9,2.267l-3.794,12.999c-0.221,0.756-0.332,1.35-0.332,1.783
	c0,0.393,0.136,0.689,0.408,0.892c0.383,0.293,0.987,0.438,1.814,0.438h0.363l-0.137,0.56h-8.63l0.151-0.56h0.408
	c0.766,0,1.35-0.11,1.754-0.332c0.312-0.161,0.591-0.467,0.838-0.915c0.247-0.448,0.592-1.443,1.036-2.985l3.385-11.88
	L75.075,75.541H74.47l-1.92-16.672l-3.657,12.681c-0.313,1.078-0.469,1.805-0.469,2.178s0.136,0.656,0.408,0.854
	c0.272,0.196,0.932,0.33,1.98,0.4l-0.166,0.56H63.89l0.166-0.56h0.408c0.998,0,1.718-0.252,2.162-0.756
	c0.322-0.362,0.659-1.148,1.012-2.357l4.459-15.281c-0.332-0.343-0.65-0.574-0.952-0.695c-0.303-0.121-0.862-0.217-1.678-0.287
	l0.151-0.56H74.712z"/>
<path fill="#FFFFFF" d="M106.634,54.577l-1.557,17.049c-0.081,0.797-0.121,1.319-0.121,1.572c0,0.403,0.076,0.711,0.227,0.922
	c0.191,0.293,0.451,0.51,0.778,0.649c0.327,0.142,0.879,0.212,1.656,0.212l-0.167,0.559h-8.071l0.166-0.559h0.348
	c0.655,0,1.188-0.141,1.602-0.423c0.292-0.192,0.519-0.509,0.68-0.952c0.111-0.312,0.216-1.048,0.318-2.207l0.241-2.6H96.87
	l-2.086,2.826c-0.474,0.635-0.771,1.091-0.892,1.367c-0.121,0.278-0.181,0.537-0.181,0.779c0,0.322,0.131,0.6,0.393,0.831
	c0.262,0.231,0.695,0.358,1.3,0.378l-0.167,0.559h-6.06l0.166-0.559c0.745-0.029,1.403-0.279,1.972-0.748
	c0.569-0.469,1.418-1.469,2.547-3l12.243-16.656H106.634z M103.641,59.609l-5.94,8.086h5.154L103.641,59.609z"/>
<path fill="#FFFFFF" d="M133.523,54.047l-5.199,17.835c-0.281,0.968-0.424,1.603-0.424,1.904c0,0.101,0.043,0.196,0.129,0.287
	s0.175,0.137,0.266,0.137c0.131,0,0.287-0.065,0.469-0.196c0.341-0.242,0.916-0.847,1.722-1.814L131,72.518
	c-0.727,1.008-1.458,1.824-2.199,2.449c-0.74,0.623-1.435,0.937-2.078,0.937c-0.343,0-0.625-0.122-0.848-0.363
	c-0.221-0.242-0.332-0.585-0.332-1.028c0-0.574,0.152-1.345,0.453-2.312l0.591-1.874c-1.462,2.257-2.792,3.819-3.99,4.687
	c-0.827,0.594-1.618,0.892-2.373,0.892c-0.766,0-1.434-0.341-2.003-1.021c-0.57-0.68-0.854-1.604-0.854-2.772
	c0-1.502,0.478-3.104,1.436-4.807c0.957-1.703,2.221-3.089,3.794-4.156c1.239-0.857,2.378-1.285,3.416-1.285
	c0.544,0,1.012,0.111,1.405,0.333c0.394,0.221,0.78,0.589,1.164,1.103l1.48-5.26c0.111-0.373,0.202-0.67,0.272-0.893
	c0.121-0.402,0.182-0.734,0.182-0.996c0-0.213-0.076-0.389-0.227-0.53c-0.212-0.171-0.483-0.257-0.816-0.257
	c-0.232,0-0.615,0.035-1.149,0.105v-0.559L133.523,54.047z M127.917,64.779c0-0.646-0.188-1.164-0.561-1.558
	c-0.373-0.393-0.845-0.589-1.42-0.589c-1.271,0-2.592,1.048-3.968,3.144c-1.375,2.097-2.063,4.102-2.063,6.016
	c0,0.756,0.166,1.333,0.499,1.73c0.332,0.398,0.73,0.598,1.194,0.598c1.048,0,2.363-1.133,3.944-3.4
	C127.125,68.452,127.917,66.471,127.917,64.779"/>
<path fill="#FFFFFF" d="M135.943,69.842c-0.072,0.504-0.106,0.922-0.106,1.254c0,0.896,0.316,1.66,0.951,2.29
	c0.636,0.63,1.406,0.944,2.313,0.944c0.725,0,1.424-0.148,2.093-0.445c0.67-0.297,1.666-0.955,2.986-1.973l0.316,0.438
	c-2.388,2.368-4.666,3.552-6.832,3.552c-1.471,0-2.58-0.463-3.324-1.391c-0.746-0.927-1.118-1.949-1.118-3.068
	c0-1.5,0.463-3.037,1.389-4.609c0.928-1.572,2.091-2.794,3.493-3.666c1.4-0.871,2.841-1.307,4.322-1.307
	c1.067,0,1.858,0.217,2.373,0.649s0.771,0.947,0.771,1.542c0,0.836-0.333,1.637-0.998,2.402c-0.877,0.998-2.166,1.805-3.869,2.419
	C139.574,69.288,137.987,69.61,135.943,69.842 M136.048,69.101c1.49-0.171,2.705-0.463,3.643-0.876
	c1.239-0.555,2.169-1.217,2.789-1.988c0.619-0.771,0.928-1.504,0.928-2.199c0-0.422-0.132-0.766-0.399-1.027
	s-0.648-0.393-1.142-0.393c-1.027,0-2.119,0.547-3.271,1.64C137.441,65.351,136.592,66.965,136.048,69.101"/>
<path fill="#FFFFFF" d="M155.199,54.047l-5.17,17.986c-0.253,0.896-0.378,1.446-0.378,1.647c0,0.151,0.048,0.276,0.145,0.378
	c0.095,0.102,0.214,0.15,0.354,0.15c0.192,0,0.399-0.084,0.62-0.256c0.524-0.414,1.074-1.053,1.648-1.92l0.453,0.469
	c-0.957,1.351-1.839,2.293-2.646,2.826c-0.594,0.383-1.159,0.574-1.692,0.574c-0.384,0-0.702-0.131-0.96-0.393
	s-0.386-0.564-0.386-0.907c0-0.362,0.161-1.108,0.484-2.237l4.095-14.177c0.333-1.159,0.499-1.823,0.499-1.996
	c0-0.241-0.095-0.44-0.287-0.597c-0.19-0.156-0.488-0.234-0.891-0.234c-0.233,0-0.585,0.036-1.059,0.106v-0.56L155.199,54.047z"/>
<path fill="#FFFFFF" d="M172.142,55.044l1.89,16.505l11.894-16.505h5.004v0.56c-1.089,0.07-1.728,0.142-1.919,0.212
	c-0.334,0.131-0.639,0.393-0.915,0.786c-0.277,0.393-0.576,1.148-0.899,2.267l-3.793,12.999c-0.222,0.756-0.333,1.35-0.333,1.783
	c0,0.393,0.135,0.689,0.408,0.892c0.383,0.293,0.986,0.438,1.812,0.438h0.364l-0.137,0.56h-8.63l0.15-0.56h0.408
	c0.766,0,1.35-0.11,1.754-0.332c0.312-0.161,0.591-0.467,0.838-0.915c0.248-0.448,0.592-1.443,1.036-2.985l3.385-11.88
	l-11.956,16.672H171.9l-1.919-16.672l-3.658,12.681c-0.312,1.078-0.469,1.805-0.469,2.178s0.137,0.656,0.408,0.854
	c0.272,0.196,0.932,0.33,1.98,0.4l-0.167,0.56h-6.756l0.166-0.56h0.408c0.998,0,1.718-0.252,2.161-0.756
	c0.322-0.362,0.659-1.148,1.013-2.357l4.459-15.281c-0.332-0.343-0.65-0.574-0.952-0.695s-0.862-0.217-1.678-0.287l0.15-0.56
	H172.142z"/>
<path fill="#FFFFFF" d="M204.065,54.577l-1.557,17.049c-0.082,0.797-0.122,1.319-0.122,1.572c0,0.403,0.076,0.711,0.228,0.922
	c0.19,0.293,0.451,0.51,0.777,0.649c0.327,0.142,0.879,0.212,1.656,0.212l-0.166,0.559h-8.072l0.166-0.559h0.349
	c0.653,0,1.188-0.141,1.602-0.423c0.292-0.192,0.52-0.509,0.681-0.952c0.11-0.312,0.217-1.048,0.317-2.207l0.242-2.6H194.3
	l-2.086,2.826c-0.474,0.635-0.771,1.091-0.892,1.367c-0.121,0.278-0.183,0.537-0.183,0.779c0,0.322,0.131,0.6,0.395,0.831
	c0.262,0.231,0.694,0.358,1.3,0.378l-0.166,0.559h-6.062l0.167-0.559c0.744-0.029,1.401-0.279,1.972-0.748
	c0.569-0.469,1.419-1.469,2.547-3l12.243-16.656H204.065z M201.072,59.609l-5.939,8.086h5.153L201.072,59.609z"/>
<path fill="#FFFFFF" d="M219.889,75.541l-3.279-9.961c-0.767,0.01-1.552-0.065-2.359-0.228l-1.768,6.198
	c-0.232,0.806-0.348,1.486-0.348,2.04c0,0.424,0.146,0.756,0.438,0.998c0.223,0.182,0.827,0.312,1.815,0.393l-0.138,0.56h-7.934
	l0.166-0.56c0.745-0.03,1.249-0.105,1.511-0.227c0.413-0.171,0.715-0.402,0.907-0.695c0.322-0.474,0.66-1.31,1.012-2.509
	l3.582-12.379c0.242-0.826,0.364-1.467,0.364-1.92c0-0.463-0.189-0.856-0.568-1.179c-0.378-0.322-0.919-0.479-1.624-0.469
	l0.182-0.56h6.681c2.237,0,3.85,0.424,4.836,1.271c0.988,0.846,1.482,1.959,1.482,3.34c0,1.32-0.507,2.527-1.521,3.619
	c-1.012,1.094-2.399,1.787-4.164,2.078l1.995,6.002c0.485,1.471,0.968,2.429,1.452,2.871c0.484,0.443,1.264,0.695,2.342,0.756
	l-0.166,0.56H219.889z M214.508,64.492c0.646,0.091,1.22,0.136,1.724,0.136c1.732,0,3.103-0.48,4.111-1.443
	c1.007-0.963,1.511-2.158,1.511-3.59c0-1.119-0.315-1.975-0.945-2.57c-0.63-0.594-1.574-0.891-2.834-0.891
	c-0.321,0-0.705,0.04-1.147,0.12L214.508,64.492z"/>
<path fill="#FFFFFF" d="M235.957,56.148l-2.344,8.103h1.92c1.369,0,2.362-0.209,2.978-0.629c0.615-0.418,1.143-1.19,1.587-2.319
	h0.56l-2.101,7.437h-0.604c0.181-0.625,0.271-1.158,0.271-1.603c0-0.433-0.088-0.78-0.265-1.043
	c-0.176-0.261-0.418-0.455-0.727-0.582c-0.306-0.125-0.954-0.188-1.94-0.188h-1.95l-1.981,6.787
	c-0.19,0.654-0.287,1.153-0.287,1.496c0,0.262,0.127,0.493,0.379,0.695c0.172,0.141,0.6,0.211,1.284,0.211h1.814
	c1.965,0,3.539-0.348,4.723-1.043c1.185-0.695,2.245-1.904,3.183-3.627h0.56l-1.936,5.697h-15.841l0.196-0.559
	c0.787-0.02,1.316-0.091,1.587-0.212c0.404-0.181,0.696-0.413,0.877-0.694c0.273-0.414,0.596-1.28,0.969-2.601l3.597-12.364
	c0.282-0.996,0.424-1.758,0.424-2.281c0-0.383-0.134-0.683-0.402-0.899c-0.266-0.217-0.788-0.325-1.562-0.325h-0.318l0.182-0.56
	h14.722l-1.271,4.942h-0.558c0.07-0.464,0.105-0.851,0.105-1.164c0-0.533-0.132-0.981-0.394-1.345
	c-0.342-0.463-0.841-0.815-1.497-1.058c-0.482-0.182-1.596-0.272-3.339-0.272H235.957z"/>
<path fill="#FFFFFF" d="M119.106,23.047h10.029v-6.177c0-1.103-0.07-1.83-0.207-2.181c-0.106-0.265-0.328-0.494-0.669-0.684
	c-0.456-0.255-0.939-0.382-1.448-0.382h-0.764v-0.59h9.232v0.59h-0.763c-0.51,0-0.994,0.122-1.45,0.366
	c-0.338,0.169-0.569,0.427-0.691,0.772c-0.122,0.345-0.184,1.048-0.184,2.109v13.93c0,1.093,0.069,1.814,0.207,2.165
	c0.106,0.265,0.324,0.493,0.652,0.684c0.468,0.255,0.956,0.382,1.466,0.382h0.763v0.589h-9.232v-0.589h0.764
	c0.88,0,1.523-0.259,1.926-0.78c0.266-0.34,0.398-1.157,0.398-2.451v-6.575h-10.029v6.575c0,1.093,0.069,1.814,0.207,2.165
	c0.106,0.265,0.329,0.493,0.668,0.684c0.457,0.255,0.94,0.382,1.449,0.382h0.78v0.589h-9.249v-0.589h0.765
	c0.891,0,1.538-0.259,1.942-0.78c0.254-0.34,0.382-1.157,0.382-2.451v-13.93c0-1.103-0.069-1.83-0.207-2.181
	c-0.107-0.265-0.324-0.494-0.654-0.684c-0.466-0.255-0.955-0.382-1.463-0.382h-0.765v-0.59h9.249v0.59h-0.78
	c-0.509,0-0.992,0.122-1.449,0.366c-0.329,0.169-0.557,0.427-0.684,0.772c-0.127,0.345-0.191,1.048-0.191,2.109V23.047z"/>
<ellipse fill="none" stroke="#FFFFFF" stroke-width="1.165" stroke-miterlimit="10" cx="124.121" cy="23.827" rx="18.015" ry="23.245"/>
<path fill="#FFFFFF" d="M96.213,100.551l1.043-6.082l-4.418-4.306l6.105-0.888l2.73-5.531l2.73,5.531l6.106,0.888l-4.418,4.306
	l1.043,6.082l-5.461-2.871L96.213,100.551z M101.673,95.905l3.375,1.775l-0.645-3.758l2.731-2.662l-3.774-0.548l-1.687-3.419
	l-1.687,3.419l-3.773,0.548l2.73,2.662l-0.645,3.758L101.673,95.905z"/>
<path fill="#FFFFFF" d="M129.581,100.551l-5.459-2.872l-5.461,2.872l1.043-6.082l-4.418-4.306l6.105-0.888l2.731-5.531l2.73,5.531
	l6.104,0.888l-4.418,4.306L129.581,100.551z M118.66,91.26l2.73,2.662l-0.644,3.757l3.375-1.774l3.374,1.774l-0.644-3.757
	l2.729-2.662l-3.772-0.548l-1.687-3.419l-1.688,3.419L118.66,91.26z"/>
<path fill="#FFFFFF" d="M141.108,100.551l1.043-6.082l-4.418-4.306l6.105-0.888l2.729-5.531l2.729,5.531l6.106,0.888l-4.418,4.306
	l1.043,6.082l-5.461-2.871L141.108,100.551z M146.568,95.905l3.375,1.775l-0.646-3.758l2.731-2.662l-3.774-0.548l-1.687-3.419
	l-1.688,3.419l-3.772,0.548l2.73,2.662l-0.645,3.758L146.568,95.905z"/>
<path fill="#FFFFFF" d="M87.346,16.467c0.006-0.111-0.071-0.188-0.211-0.242c-1.249,0.498-2.382,1.301-3.391,2.434
	c-0.108,0.096-0.228,0.222-0.326,0.339c-1.112,1.307-2.133,2.66-3.066,4.061c-0.931,1.399-1.785,2.689-2.59,3.854
	c-0.785,1.156-1.564,1.88-2.34,2.173c-1.697,0.641-3.287,0.489-4.737-0.495c-0.203-0.032-0.326-0.039-0.412,0.047
	c-0.075,0.056-0.061,0.158,0.073,0.322c0.402,0.306,0.85,0.54,1.322,0.711c0.492,0.163,0.988,0.272,1.466,0.332
	c0.499,0.054,0.951,0.045,1.394,0.012c0.433-0.056,0.807-0.143,1.101-0.254c0.838-0.316,1.606-0.822,2.301-1.515
	c0.717-0.7,1.408-1.472,2.033-2.353c0.654-0.865,1.291-1.777,1.882-2.753c0.619-0.959,1.205-1.879,1.788-2.745
	c0.17-0.252,0.316-0.495,0.494-0.723c0.402-0.583,0.831-1.094,1.228-1.566c0.562-0.669,1.153-1.134,1.742-1.411
	C87.243,16.641,87.34,16.578,87.346,16.467"/>
<path fill="#FFFFFF" d="M103.1,15.696c0.021-0.255-0.081-0.504-0.203-0.728c-0.584-1.066-1.657-1.674-2.793-2.002
	c-0.827-0.225-1.804-0.34-2.935-0.289c-1.138,0.027-2.417,0.322-3.861,0.868c-1.992,0.752-3.694,1.824-5.095,3.187
	c-1.314,1.275-2.513,2.668-3.606,4.21c-0.087,0.086-0.166,0.196-0.223,0.298c-1.157,1.566-2.215,3.202-3.175,4.909
	c-0.969,1.682-1.973,3.271-3.004,4.788c-1.061,1.504-2.206,2.849-3.412,4.03c-1.205,1.182-2.632,2.096-4.245,2.705
	c-0.734,0.277-1.425,0.35-2.064,0.242c-0.66-0.1-1.221-0.318-1.696-0.622c-0.475-0.304-0.903-0.68-1.245-1.142
	c-0.343-0.463-0.594-0.878-0.755-1.302c-0.292-0.776-0.332-1.513-0.159-2.196c0.202-0.668,0.453-1.274,0.748-1.761
	c0.307-0.519,0.575-0.889,0.814-1.14c0.22-0.245,0.265-0.316,0.076-0.245c-0.356,0.134-0.74,0.387-1.151,0.758
	c-0.39,0.362-0.732,0.787-0.996,1.289c-0.257,0.528-0.424,1.101-0.501,1.721c-0.068,0.645,0.038,1.303,0.313,2.032
	c0.524,1.388,1.461,2.351,2.816,2.833c1.336,0.491,3.068,0.321,5.164-0.47c1.654-0.625,3.069-1.51,4.326-2.683
	c1.237-1.165,2.368-2.48,3.384-3.911c0.941-1.309,1.811-2.704,2.639-4.151c-0.03,0.199-0.056,0.397-0.077,0.597
	c-0.224,2.228-0.171,5.308,1.229,7.2c1.125,1.52,3.569,1.878,4.656,0.039c0.97-1.642-0.115-3.679-1.923-4.042
	c-0.269-0.053-0.442,0.116-0.491,0.323c-0.082,0.135-0.105,0.309-0.004,0.48c0.459,0.783,0.919,1.566,1.379,2.349
	c0.091,0.155-0.411,1.295-1.308,1.268c-1.999-0.057-2.498-3.002-2.653-4.54c-0.202-2.014,0.037-4.018,0.697-5.881
	c1.376-2.372,3.351-4.402,5.74-5.765c0.9-0.513,1.841-0.96,2.821-1.298c1.757-0.608,3.678-0.893,5.455-0.217
	c1.595,0.606,2.95,1.803,3.852,3.243c1.131,1.808,1.618,4.032,1.241,6.132c-0.377,2.099-1.64,4.045-3.462,5.156
	c-1.453,0.886-3.248,1.209-4.917,0.871c-1.657-0.337-3.166-1.018-4.217-2.403c-1.706-2.249-2.069-5.428-0.314-7.782
	c0.925-1.242,2.292-2.28,3.887-2.415c1.56-0.133,3.387,0.47,4.055,2.034c0.297,0.694,0.352,1.57,0.12,2.332
	c-0.631-0.62-1.494-1.203-2.399-1.048c-0.78,0.134-1.576,0.599-1.799,1.415c-0.554,2.015,2.049,2.761,3.465,1.858
	c1.731-1.103,2.394-3.497,1.239-5.268c-1.273-1.952-3.72-2.743-5.924-1.958c-1.904,0.677-3.404,2.173-4.137,4.05
	c-1.292,3.309-0.075,7.192,3.038,8.988c1.735,1.001,3.829,1.293,5.812,1.006c2.7-0.391,5.245-1.864,6.856-4.066
	c1.61-2.203,2.24-5.117,1.594-7.768c-0.056-0.231-0.122-0.459-0.197-0.685c-1.154-3.449-4.325-5.82-7.944-5.971
	c-1.746-0.072-3.493,0.286-5.131,0.873c-0.852,0.306-1.681,0.676-2.482,1.099c-0.399,0.211-0.792,0.435-1.177,0.671
	c-0.321,0.197-0.832,0.418-1.076,0.706c0.434-0.513,0.877-1.003,1.331-1.465c1.363-1.401,2.96-2.434,4.783-3.123
	c0.462-0.174,1.033-0.309,1.705-0.429c0.704-0.104,1.383-0.145,2.079-0.14c0.685,0.038,1.294,0.13,1.85,0.269
	c0.543,0.171,0.886,0.445,1.028,0.821c0.018,0.048,0.082,0.157,0.203,0.408c0.129,0.219,0.269,0.462,0.43,0.698
	c0.169,0.258,0.372,0.477,0.586,0.665c0.236,0.179,0.469,0.225,0.699,0.139C102.775,16.23,103.07,16.073,103.1,15.696"/>
<path fill="#FFFFFF" d="M160.895,16.467c-0.007-0.111,0.07-0.188,0.212-0.242c1.248,0.498,2.381,1.301,3.39,2.434
	c0.108,0.096,0.229,0.222,0.327,0.339c1.111,1.307,2.133,2.66,3.064,4.061c0.932,1.399,1.785,2.689,2.592,3.854
	c0.782,1.156,1.562,1.88,2.339,2.173c1.697,0.641,3.287,0.489,4.735-0.495c0.204-0.032,0.327-0.039,0.413,0.047
	c0.075,0.056,0.062,0.158-0.072,0.322c-0.402,0.306-0.851,0.54-1.321,0.711c-0.493,0.163-0.99,0.272-1.467,0.332
	c-0.499,0.054-0.95,0.045-1.395,0.012c-0.433-0.056-0.807-0.143-1.1-0.254c-0.839-0.316-1.607-0.822-2.302-1.515
	c-0.718-0.7-1.408-1.472-2.033-2.353c-0.654-0.865-1.291-1.777-1.881-2.753c-0.619-0.959-1.206-1.879-1.789-2.745
	c-0.169-0.252-0.316-0.495-0.493-0.723c-0.403-0.583-0.832-1.094-1.229-1.566c-0.562-0.669-1.151-1.134-1.741-1.411
	C160.998,16.641,160.902,16.578,160.895,16.467"/>
<path fill="#FFFFFF" d="M145.783,16.35c0.229,0.086,0.464,0.041,0.698-0.139c0.215-0.188,0.417-0.406,0.586-0.665
	c0.161-0.236,0.302-0.479,0.432-0.697c0.12-0.251,0.183-0.361,0.201-0.409c0.143-0.376,0.484-0.65,1.028-0.821
	c0.557-0.139,1.165-0.231,1.852-0.269c0.694-0.005,1.374,0.036,2.078,0.141c0.672,0.119,1.242,0.255,1.704,0.428
	c1.823,0.689,3.421,1.723,4.783,3.123c0.453,0.462,0.897,0.952,1.331,1.465c-0.244-0.288-0.756-0.509-1.076-0.706
	c-0.386-0.236-0.777-0.46-1.178-0.671c-0.8-0.423-1.628-0.793-2.48-1.098c-1.639-0.588-3.387-0.946-5.132-0.873
	c-3.618,0.15-6.79,2.521-7.943,5.97c-0.075,0.226-0.142,0.454-0.197,0.685c-0.646,2.651-0.016,5.565,1.594,7.768
	c1.611,2.202,4.157,3.675,6.857,4.066c1.982,0.287,4.076-0.005,5.811-1.006c3.114-1.796,4.33-5.679,3.037-8.988
	c-0.731-1.877-2.231-3.372-4.135-4.05c-2.205-0.785-4.652,0.006-5.924,1.958c-1.156,1.771-0.492,4.165,1.238,5.268
	c1.416,0.903,4.019,0.157,3.466-1.857c-0.225-0.817-1.021-1.282-1.8-1.415c-0.905-0.156-1.769,0.427-2.399,1.047
	c-0.232-0.762-0.176-1.637,0.12-2.332c0.668-1.564,2.496-2.167,4.054-2.034c1.596,0.135,2.963,1.173,3.888,2.415
	c1.756,2.354,1.394,5.533-0.313,7.782c-1.051,1.385-2.56,2.066-4.217,2.403c-1.669,0.339-3.464,0.015-4.917-0.871
	c-1.822-1.111-3.085-3.057-3.462-5.156c-0.377-2.1,0.109-4.323,1.24-6.132c0.902-1.439,2.257-2.637,3.854-3.243
	c1.776-0.676,3.697-0.391,5.455,0.217c0.979,0.339,1.92,0.785,2.819,1.299c2.391,1.362,4.363,3.393,5.74,5.764
	c0.66,1.863,0.899,3.867,0.697,5.882c-0.155,1.537-0.654,4.482-2.654,4.54c-0.895,0.026-1.396-1.114-1.306-1.269
	c0.459-0.783,0.919-1.565,1.379-2.349c0.099-0.17,0.078-0.344-0.004-0.48c-0.05-0.207-0.223-0.376-0.492-0.322
	c-1.808,0.362-2.893,2.399-1.923,4.041c1.087,1.84,3.531,1.482,4.656-0.038c1.399-1.892,1.453-4.973,1.228-7.201
	c-0.02-0.2-0.046-0.398-0.076-0.597c0.828,1.448,1.698,2.843,2.64,4.151c1.016,1.431,2.146,2.746,3.384,3.911
	c1.258,1.174,2.672,2.058,4.327,2.683c2.095,0.791,3.827,0.961,5.162,0.471c1.354-0.482,2.293-1.446,2.816-2.833
	c0.276-0.73,0.381-1.388,0.313-2.033c-0.077-0.62-0.243-1.193-0.5-1.72c-0.266-0.503-0.608-0.928-0.997-1.29
	c-0.411-0.371-0.794-0.623-1.151-0.758c-0.188-0.071-0.144,0,0.077,0.245c0.239,0.251,0.506,0.621,0.812,1.141
	c0.296,0.486,0.546,1.092,0.749,1.76c0.173,0.683,0.134,1.42-0.16,2.197c-0.159,0.423-0.411,0.838-0.754,1.301
	c-0.344,0.462-0.771,0.838-1.245,1.142c-0.476,0.305-1.035,0.522-1.696,0.622c-0.639,0.108-1.33,0.035-2.063-0.242
	c-1.613-0.609-3.04-1.523-4.245-2.705c-1.206-1.181-2.352-2.526-3.411-4.03c-1.031-1.517-2.036-3.106-3.005-4.788
	c-0.96-1.707-2.019-3.343-3.176-4.909c-0.056-0.101-0.137-0.212-0.222-0.298c-1.094-1.542-2.292-2.935-3.606-4.21
	c-1.401-1.363-3.103-2.435-5.096-3.187c-1.444-0.546-2.723-0.841-3.861-0.868c-1.131-0.051-2.107,0.064-2.936,0.289
	c-1.135,0.328-2.208,0.936-2.792,2.003c-0.123,0.223-0.223,0.472-0.204,0.727C145.171,16.073,145.467,16.23,145.783,16.35"/>
</svg>
