<?xml version="1.0" standalone="no"?>
<!DOCTYPE svg PUBLIC "-//W3C//DTD SVG 20010904//EN"
 "http://www.w3.org/TR/2001/REC-SVG-20010904/DTD/svg10.dtd">
<svg version="1.0" xmlns="http://www.w3.org/2000/svg"
 width="260.000000pt" height="260.000000pt" viewBox="0 0 260.000000 260.000000"
 preserveAspectRatio="xMidYMid meet">
<metadata>
Created by potrace 1.11, written by Peter Selinger 2001-2013
</metadata>
<g transform="translate(0.000000,260.000000) scale(0.100000,-0.100000)"
fill="#000000" stroke="none">
<path d="M1265 1789 c-66 -9 -111 -28 -165 -73 -83 -70 -150 -192 -169 -309
-7 -48 -9 -50 -18 -27 -6 14 -23 36 -37 49 -19 18 -23 27 -14 33 19 11 -1 39
-43 61 -45 23 -114 17 -184 -18 -83 -40 -120 -84 -269 -319 -99 -154 -217
-214 -276 -139 -26 33 -25 77 2 115 l21 30 -22 -12 c-61 -32 -57 -140 6 -169
85 -39 208 28 299 163 l34 51 0 -51 c0 -67 32 -118 77 -122 58 -6 80 76 27
100 -33 15 -38 6 -19 -32 20 -38 7 -62 -23 -44 -27 18 -44 82 -37 144 9 88 68
156 172 202 102 45 201 -2 228 -108 35 -137 -102 -247 -217 -175 -42 26 -59
54 -63 105 -5 69 38 122 105 131 35 4 80 -27 80 -55 0 -16 -5 -18 -30 -14 -34
7 -60 -9 -60 -37 0 -42 79 -47 101 -7 22 41 20 67 -8 98 -52 58 -143 45 -190
-26 -24 -37 -24 -129 1 -166 69 -105 244 -91 322 24 l32 47 7 -47 c10 -66 42
-149 83 -210 113 -172 305 -216 467 -107 102 69 186 220 195 350 1 15 6 11 20
-17 66 -125 264 -150 331 -42 56 92 11 212 -88 230 -43 8 -85 -10 -106 -45
-33 -57 9 -132 67 -117 29 7 40 31 25 58 -9 17 -17 19 -49 14 -34 -5 -38 -4
-33 13 11 44 64 68 110 50 99 -37 102 -189 4 -235 -74 -36 -163 -7 -196 63
-52 109 22 243 134 243 82 0 196 -72 236 -150 34 -66 22 -200 -20 -216 -28
-11 -40 12 -25 43 8 16 16 31 18 36 9 17 -38 5 -52 -14 -28 -41 -1 -92 47 -87
42 4 69 45 75 112 l4 55 36 -52 c41 -61 102 -121 144 -143 17 -9 54 -18 82
-21 45 -5 56 -2 79 18 52 45 51 130 -2 159 l-21 11 20 -33 c29 -47 25 -81 -11
-117 -36 -36 -58 -38 -116 -10 -56 27 -109 88 -193 224 -90 144 -155 216 -228
252 -69 34 -153 38 -196 10 -33 -22 -44 -46 -25 -58 8 -5 9 -9 2 -9 -6 0 -25
-21 -42 -47 -24 -35 -31 -41 -31 -25 0 11 -6 46 -14 76 -37 142 -114 249 -219
302 -60 31 -118 42 -182 33z m158 -37 c105 -48 196 -167 232 -304 18 -70 17
-222 -2 -295 -31 -123 -124 -247 -220 -295 -68 -33 -198 -33 -262 1 -102 53
-195 189 -222 321 -35 177 15 377 122 489 107 111 227 139 352 83z m-638 -238
c12 -3 27 -14 34 -26 11 -18 10 -19 -11 -12 -60 19 -179 -1 -227 -38 -9 -7 -8
-3 4 11 41 49 141 81 200 65z m1134 -4 c37 -10 116 -59 108 -66 -2 -2 -24 5
-49 16 -51 22 -120 31 -160 19 -28 -8 -34 -3 -20 17 16 24 66 30 121 14z"/>
<path d="M1070 1520 c0 -5 11 -10 25 -10 17 0 28 -7 34 -22 4 -13 7 -101 6
-197 -1 -158 -3 -175 -20 -187 -10 -8 -25 -14 -33 -14 -7 0 -11 -3 -9 -8 3 -4
43 -6 89 -5 114 2 117 3 83 15 -16 6 -33 15 -36 20 -4 6 -6 49 -5 96 l1 87 90
0 c50 1 95 -1 101 -3 8 -2 11 -30 9 -80 -3 -113 -2 -110 -37 -118 -31 -7 -31
-8 -9 -13 29 -8 171 -5 179 3 3 3 -4 6 -15 6 -42 0 -48 23 -49 204 -2 182 4
216 35 216 11 0 23 5 26 10 4 6 -30 10 -95 10 -65 0 -99 -4 -95 -10 3 -5 15
-10 25 -10 29 0 35 -18 36 -107 l2 -83 -103 0 -102 0 1 87 1 88 35 17 35 17
-102 1 c-62 0 -103 -4 -103 -10z"/>
<path d="M500 1443 c-35 -25 -62 -56 -125 -150 -31 -46 -66 -88 -78 -94 -28
-15 -74 -14 -94 3 -14 11 -15 11 -11 -2 6 -19 59 -34 92 -26 39 10 80 50 144
143 33 49 72 100 87 116 31 30 22 36 -15 10z"/>
<path d="M2094 1434 c14 -15 51 -64 82 -110 61 -91 110 -140 149 -150 27 -7
95 13 95 27 0 6 -8 6 -19 -1 -25 -13 -67 -13 -91 0 -11 6 -46 50 -80 98 -70
101 -99 135 -128 151 -34 18 -36 13 -8 -15z"/>
</g>
</svg>
